# xmcd CD database file
#
# Track frame offsets:
#	150
#	17020
#	33751
#	48948
#	67341
#	82983
#	99015
#	114717
#	135349
#	154116
#	168332
#	189570
#	209999
#	228462
#	242678
#	258728
#
# Disc length: 3733 seconds
#
# Revision: 0
# Processed by: cddbd v1.4PL0 Copyright (c) Steve Scherf et al.
# Submitted via: CDex 1.50Beta7
#
DISCID=d60e9310
DTITLE=MOST WANTED HITS 99 - A
DYEAR=2002
DGENRE=Salsa
TTITLE0=BELIEVE
TTITLE1=THAT DON`T IMPRESS ME MUCH
TTITLE2=BIG BIG WORLD
TTITLE3=IN OUR LIFETIME
TTITLE4=WHEN YOU`RE GONE
TTITLE5=BABY ONE MORE TIME
TTITLE6=NO SCRUBS
TTITLE7=THE ANIMAL SONG
TTITLE8=MARIA
TTITLE9=PRETTY FLY
TTITLE10=AS
TTITLE11=CHANGES
TTITLE12=YOU DON`T KNOW ME
TTITLE13=SWEETEST THING
TTITLE14=STRONG ENOUGH
TTITLE15=YOU GET WAT YOU GIVE
EXTD=YEAR: 2002
EXTT0=
EXTT1=
EXTT2=
EXTT3=
EXTT4=
EXTT5=
EXTT6=
EXTT7=
EXTT8=
EXTT9=
EXTT10=
EXTT11=
EXTT12=
EXTT13=
EXTT14=
EXTT15=
PLAYORDER=
